<svg width="499.99999999999994" height="499.99999999999994" xmlns="http://www.w3.org/2000/svg">

 <g>
  <title>background</title>
  <rect fill="none" id="canvas_background" height="402" width="582" y="-1" x="-1"/>
 </g>
 <g>
  <title>Layer 1</title>
  <path id="svg_1" fill-rule="evenodd" fill="#4c4c4c" d="m415.762,345.476107c-19.078,-24.896 -42.156,-41.063 -75.223,-50.236l-30.983,108.475c0,9.992 -8.181,18.172 -18.172,18.172c-9.988,0 -18.169,-8.18 -18.169,-18.172l0,-86.311c0,-12.536 -10.178,-22.715 -22.715,-22.715c-12.536,0 -22.713,10.179 -22.713,22.715l0,86.311c0,9.992 -8.181,18.172 -18.17,18.172c-9.992,0 -18.173,-8.18 -18.173,-18.172l-30.983,-108.475c-33.068,9.262 -56.145,25.34 -75.221,50.236c-7.542,9.812 -11.64,29.527 -11.908,40.07c0.09,2.725 0,5.906 0,9.082l0,18.172l0,18.173c0,20.078 16.264,36.34 36.343,36.34l281.648,0c20.078,0 36.345,-16.262 36.345,-36.34l0,-18.173l0,-18.172c0,-3.176 -0.089,-6.357 0,-9.082c-0.275,-10.543 -4.368,-30.259 -11.906,-40.07zm-260.66,-218.141c0,53.059 33.078,131.013 95.398,131.013c61.237,0 95.396,-77.954 95.396,-131.013c0,-53.057 -42.702,-96.124 -95.396,-96.124c-52.694,0 -95.398,43.067 -95.398,96.124z" clip-rule="evenodd"/>
 </g>
</svg>