<svg width="200" height="100" xmlns="http://www.w3.org/2000/svg"><path fill="none" d="M-1-1h202v102H-1z"/><g><g stroke="null" fill="#3e4095"><path d="M36.9606 16.7238c-1.402.6404-3.4272 1.575-4.5004 2.0598-1.0731.4933-3.1156 1.4366-4.5436 2.0858-1.428.6576-3.7647 1.7308-5.1927 2.38-5.4957 2.527-12.3068 5.6513-13.6656 6.2658l-.6837.3116H5.4147c-2.8646 0-2.9684.0086-3.1935.1817-.2164.1731-.2856.4587-.1558.6491.1731.2683.4674.2943 3.4273.2943h2.9858l.978-.4414c.5365-.251 2.1463-.9866 3.5742-1.6357 1.428-.6578 3.5484-1.627 4.7168-2.1637 1.1683-.5365 3.306-1.5145 4.76-2.181 1.454-.6663 2.8387-1.3067 3.0724-1.4106.2423-.1125 1.4107-.649 2.5963-1.1943 1.1943-.5452 3.1157-1.428 4.284-1.9646 1.1684-.528 2.2762-1.0385 2.4666-1.1337.1904-.0866 1.3154-.6058 2.5012-1.1511l2.1636-.978 1.125.4674c.6232.2683 1.3675.5712 1.653.6923.2857.1212.9261.3895 1.428.6058.502.2164 1.2203.5193 1.6011.6751.3808.1558 1.454.5972 2.38.9953.926.3895 2.155.9 2.7262 1.1424.5713.2423 1.1944.502 1.3848.5885.1904.0866 1.0645.45 1.9472.8222.8828.3635 2.3368.978 3.2282 1.3588 1.1424.476 1.705.675 1.904.6577.2423-.026.3375-.1212.779-.7876.3288-.502.5452-.7529.623-.7183.1472.052 1.4021.978 1.4627 1.0732.0173.0346-.1558.372-.3895.7529-.225.3808-.424.7962-.424.926 0 .1904.225.4328 1.1683 1.3156.8308.7702 1.2376 1.0904 1.3847 1.0904.1212 0 .476-.2164.8655-.5279.3721-.2856.701-.4933.7356-.45.0346.0346.2856.398.5626.7875l.502.727-.6665.6664c-.3635.3635-.6577.7097-.6577.7616 0 .2424 1.2722 2.83 1.454 2.9512.173.1125.2682.1039 1.0298-.1125.4674-.1299.8568-.199.8655-.1644.3202.8914.5193 1.5578.476 1.601-.0346.026-.3981.1559-.8135.2857-.502.1471-.7876.2856-.8482.398-.1385.2684.1385 3.4532.3202 3.6523.1125.1298.2857.1558 1.0386.1558h.9l-.026.9693-.026.978-.926.0432c-.5278.026-.9692.0866-1.0298.1385-.1125.1211-.7702 2.6396-.7876 3.055-.0173.3722.1645.528.9953.8395.3376.1299.6664.2683.7183.3116.078.052.0087.2856-.2337.8308-.1816.4154-.3634.7616-.398.7703-.0433.0173-.3636-.0693-.7184-.1904-.7789-.2683-.9606-.2683-1.1857-.026-.4586.5106-1.7568 2.4406-1.7568 2.6137 0 .251.1039.3635.8395.9606.3808.2943.6058.5366.5712.5972-.1212.199-1.177 1.4367-1.2376 1.4367-.026 0-.3549-.2337-.727-.5193-.3721-.2856-.7702-.5193-.874-.5193-.1213 0-.5627.303-1.1425.7702-1.177.9607-2.7608 1.9993-3.055 1.9993-.052 0-.0866-.3289-.0866-.9088v-.9087l-.3289.2077c-2.0165 1.2722-4.8466 1.9646-7.5035 1.8434-3.107-.147-5.383-.727-12.0471-3.055-6.1534-2.1463-9.0008-2.8733-12.402-3.159-1.0905-.0951-3.7214-.0519-3.9032.0607-.0433.026-.0779 6.3004-.0779 14.4098v14.3579l8.4382-.0173 8.4295-.026.199-.199.1992-.1991.0432-8.4988c.0433-7.4775.0693-8.5507.1904-8.9488.303-.978.8828-1.5664 1.8434-1.8693.6059-.1904.6318-.1904 7.3997-.1904 6.4562 0 6.8111.0086 7.0967.1644 1.177.6231 1.7223 2.1204 1.3328 3.6262-.251.978-.675 1.5319-1.4194 1.8694-.372.173-.5538.1818-4.9503.1818H46.221v2.2415l4.6561.026 4.6475.026.3981.2336c.8741.5106 1.3155 1.3674 1.3155 2.5358 0 1.2722-.5885 2.2761-1.5492 2.6396-.4587.1644-.6577.1731-5.011.1731h-4.5436v3.0291h4.2667c4.4657 0 5.4264.0606 6.136.3635.7443.3202 1.1944 1.004 1.1944 1.8088 0 .277.2683.6837.4587.6837.0346 0 .0606-4.7773.0606-10.6278V55.3923l.753-.372c1.1077-.5453 2.1895-1.281 3.4098-2.3195.1212-.1039.2337-.0433.8741.45.8568.6578 1.0732.6924 1.4453.277.8482-.9347 1.9992-2.432 1.9992-2.605 0-.251-.0952-.3636-.8481-.9607-.3462-.277-.6145-.5366-.6058-.5799.0779-.2336.9952-1.4453 1.099-1.454.0607 0 .3896.0953.7184.2164.6145.225.978.2683 1.177.1472.1558-.1039 1.3155-2.7868 1.3155-3.055 0-.3117-.1904-.45-1.0385-.7703-.4068-.1558-.7616-.3116-.8049-.3376-.0692-.0692.2683-1.6443.3981-1.8088.052-.0692.3722-.1038 1.0213-.1038.8827 0 .9433-.0087 1.0645-.199.0865-.1385.1298-.6578.173-1.8521.0693-2.1031.1212-2.0165-1.203-2.0165-1.0644 0-.978.0952-1.0125-1.2463l-.026-.8568.8568-.2856c.8482-.277 1.004-.3721 1.004-.6577 0-.2424-.926-2.9426-1.0732-3.107-.1818-.2164-.3116-.2077-1.177.052-.3981.121-.753.2163-.7962.2163-.0347 0-.2424-.3808-.4587-.8395l-.3895-.8395.6404-.6059c.3549-.3374.675-.701.701-.8048.052-.1818-.5884-1.203-1.6183-2.605-.4587-.6232-.6491-.6145-1.506.0692-.3548.2856-.6923.5193-.7442.5193-.052 0-.3808-.2856-.727-.6318l-.6404-.6231.4327-.727c.6318-1.0472.6231-1.0905-.5626-1.9733-1.653-1.2376-1.8347-1.35-2.077-1.2895-.1559.0433-.3722.2943-.7443.8568-.2857.4414-.5626.8135-.6059.8309-.052.0173-.502-.1472-1.0125-.3636-.5107-.2163-1.5665-.6663-2.354-.9952-1.3848-.5799-2.1378-.9-4.9332-2.0684-.7356-.3117-1.5924-.6751-1.904-.805-.3116-.1384-1.0472-.45-1.6443-.6923-1.3329-.5539-2.0166-.8395-4.9245-2.0684-1.255-.528-2.3108-.9607-2.3367-.9607-.026 0-1.203.528-2.605 1.177h0z"/><path d="M49.328 24.0282c-3.1503.4933-6.1015 2.0771-8.8018 4.7254l-.8914.8741-.952.0606c-6.5168.3894-12.4539 4.232-15.1368 9.7883-1.0125 2.103-1.5578 4.4657-1.5578 6.7678v.7616l1.8261-.026c1.982-.0432 3.081.0433 5.011.3809 2.83.4933 4.8812 1.0991 11.9865 3.5656 3.4792 1.203 5.3919 1.7396 7.4776 2.0772 1.4193.225 4.2667.199 5.4177-.052 1.3934-.3029 2.7349-.8481 3.9032-1.5837.2943-.1904.5539-.3376.5885-.3376.026 0 .052.2683.052.6058 0 .3289.026.6059.0692.6059.1039-.0087 1.653-1.177 2.4665-1.878 1.3501-1.1512 2.7955-2.9253 3.6436-4.4572.554-.9953.9953-2.1377 1.3155-3.3926.277-1.0991.3202-1.3674.3549-2.7088.0605-1.7223-.0433-2.6916-.4155-4.111-1.1338-4.3272-4.0157-7.988-7.9881-10.1431-.9001-.4846-2.1983-.978-3.3753-1.2809-.9693-.2423-1.177-.2683-2.7781-.2942-.952-.0087-1.9473.0086-2.2156.0519zm4.206 1.177c2.3455.3981 4.8985 1.7482 6.8631 3.6263 2.3367 2.2242 3.8513 4.9418 4.4484 7.9622.2424 1.2549.2683 3.4185.0433 4.6301-.5452 2.934-2.3194 5.9284-4.8032 8.1007-.7616.6664-1.705 1.4193-1.7742 1.4193-.026 0-.0606-1.4885-.0866-3.3146-.052-3.3753-.0692-3.6609-.4587-5.236-.9346-3.808-3.4704-7.2872-7.0102-9.624-2.6136-1.7222-5.6081-2.7607-8.8795-3.0723-.329-.0346-.5885-.0865-.5885-.1298 0-.1298 1.4106-1.376 2.1982-1.9386 1.5059-1.0732 3.6176-2.0252 5.2274-2.3454 1.5837-.3202 3.254-.3462 4.8205-.0779zM20.3871 47.3436c-6.4476 1.125-11.121 5.158-12.7135 10.9826-.4068 1.4713-.528 2.458-.5193 4.2148.0087 1.7222.1558 2.8473.5626 4.284.978 3.4618 2.9858 6.3524 5.8591 8.4121 1.3414.9607 3.7474 2.0339 5.4783 2.4406.502.1126 1.9906.3376 2.5012.3722l.3895.026v-1.03l-.9088-.1124c-2.4665-.3116-4.6475-1.1165-6.664-2.458-1.1164-.7355-2.8733-2.5098-3.6522-3.6694-2.2243-3.332-3.0378-7.469-2.2243-11.3375 1.2463-5.9716 5.8679-10.0739 12.5405-11.1643.45-.0693.8481-.1299.8914-.1299.0346 0 .0606-.2337.0606-.5193 0-.5106 0-.5192-.2337-.5106-.1384 0-.7443.0952-1.3674.199zm140.074 9.745c-1.307.0346-2.5012.1039-2.6397.1471-.8914.303-1.6963.9174-2.0165 1.5578-.3548.6924-.3635.952-.3635 9.4249v8.1785l-.2163.2077c-.1904.199-.2683.2164-1.0732.2164-.7962 0-.8828-.0173-1.1251-.2164-.1385-.1212-.3203-.3981-.3981-.6058-.2164-.5626-.1212-1.0472.3461-1.679.7876-1.0732.779-1.03.779-3.1243 0-1.705-.0174-1.8867-.1731-2.155-.0952-.1644-.2857-.3721-.4155-.476-.2423-.1817-.3375-.1817-4.2234-.2077-3.782-.026-3.9984-.0173-4.3532.1472-.6318.2769-.6924.45-.727 1.9386-.052 1.9646.026 2.0424 1.8175 2.0598 1.2117.0173 1.5319.0605 1.653.2596.251.3894-.3635 1.1424-1.1943 1.4626-.4328.1731-.6838.2077-1.5146.2077-1.6097.0087-2.432-.3721-3.3147-1.5232-1.9213-2.5358-1.8607-6.5168.1472-8.5074 1.826-1.8261 4.3099-1.4107 5.9283.9866.9607 1.4194 2.2329 2.0944 3.4186 1.8261 1.0731-.251 1.9213-.9433 2.406-1.956.4933-1.0558.5106-2.129.0259-3.1069-.4414-.9087-1.9213-2.38-3.2887-3.2887-1.8867-1.2376-3.6696-1.7742-5.9284-1.7742-1.7569 0-3.3147.3548-4.7513 1.0818-4.838 2.432-7.1833 7.6074-6.015 13.2761.4154 2.0079 1.402 3.9205 2.7781 5.3745 1.5665 1.6616 3.5484 2.5963 6.3265 2.9772 1.402.199 1.7829.173 3.531-.1818 1.7916-.3722 1.8521-.3549 1.8521.2683.0087.701.502 1.3934 1.1424 1.601.6838.2165 1.6184.251 6.8631.2424l5.539-.0173.3894-.2163c.2856-.1558.45-.329.6058-.6491l.2164-.4328.0432-8.3776.0433-8.3863.251-.2163c.251-.2164.277-.2164 1.3934-.1818 1.0904.026 1.1683.0433 1.7049.3202 2.155 1.0905 3.1157 3.9465 2.354 6.9756-.225.8828-.8308 2.0165-1.4106 2.657-.6664.7183-1.1857.9866-2.2416 1.151-.9607.1385-1.1077.2164-1.229.6318-.121.4414-.1125 4.8985.0087 5.4783.1212.5366.5626 1.0299 1.0819 1.1857.4413.1298 26.5434.1558 26.8896.026.3722-.1472.5626-.4328.7097-1.0905.199-.8914.5885-1.4367 2.0079-2.8127 1.2895-1.2463 1.93-2.0339 2.5617-3.1676.5625-.9953.753-1.6184.753-2.432 0-1.1683-.5713-2.0943-1.5924-2.6223-.502-.251-.6492-.2856-1.255-.2856-.6145 0-.7616.0346-1.3241.303-.8568.4154-1.2377.7702-1.9733 1.852-1.0818 1.5924-2.0165 2.4406-3.0637 2.804-.6144.2078-.8741.2164-1.4885.0347-.9001-.2597-1.8435-1.177-2.406-2.328-1.8002-3.7042-.3722-8.0661 2.8127-8.6286 1.35-.2337 2.7954.5192 3.7993 1.9732.8222 1.1943 1.5232 1.7395 2.5272 1.9473.5365.1211 1.177 0 1.8347-.3289 1.2722-.6405 2.129-2.354 1.878-3.756-.1298-.7703-.4327-1.3329-1.099-2.0945-1.8175-2.0424-4.0504-3.3493-6.5256-3.8167-.9347-.1817-2.8733-.1817-3.808 0-4.5696.8655-8.1526 4.5004-8.9575 9.0787-.2077 1.151-.2077 2.9944-.0086 4.2407.251 1.5751.978 3.6262 1.7655 5.0024.251.4326.3895.7789.3981.9952l.0087.3202h-2.7954c-2.657 0-2.8041-.0086-2.9253-.1644-.1558-.225-.0865-.4933.3116-1.177 1.8866-3.2022 2.4578-7.5208 1.4106-10.723-.9086-2.804-2.882-5.1495-5.4783-6.5342-.7961-.4241-2.0251-.8568-2.9858-1.0559-.7702-.1644-2.9425-.2077-6.015-.1211zm5.937 1.2116c2.4924.5107 4.8205 2.0772 6.2399 4.1975.8048 1.1943 1.48 2.9166 1.6703 4.2407.1039.779.1039 2.5099 0 3.2888-.225 1.5405-.874 3.479-1.6357 4.8205-.5193.9348-.6145 1.1944-.6145 1.731 0 .4673.0866.6923.4154 1.0385.3549.3808.8309.4327 3.886.3981 2.579-.026 2.7694-.0346 3.055-.199.3808-.225.6058-.6578.6058-1.1684 0-.5452-.1125-.8827-.528-1.5664-.5192-.8655-1.0904-2.2936-1.4366-3.6263-.277-1.0559-.3116-1.3155-.3462-2.6397-.0346-1.1597-.0173-1.6357.0952-2.2415.4154-2.1896 1.255-3.834 2.7436-5.3744 2.5617-2.6484 6.162-3.661 9.6844-2.7176.9087.2423 2.4146 1.004 3.2974 1.6703.9866.7443 2.129 1.956 2.3973 2.5445.1818.4067.2077.5625.173 1.1337-.0432.7703-.2856 1.2636-.8654 1.7828-.4414.3982-.8221.5626-1.3241.5626-.7703 0-1.3069-.3808-2.0598-1.454-1.4367-2.0511-3.3926-2.8992-5.4178-2.354-1.7915.4847-3.1589 2.0338-3.7474 4.2408-.1644.6057-.199.952-.199 1.9905.0086 1.0905.0346 1.3674.2423 2.1204.6664 2.4146 2.0771 4.1541 3.7474 4.5869 1.9992.5192 3.9638-.6318 5.7033-3.332.3895-.6059.978-1.1944 1.428-1.428.3808-.1991 1.1165-.2597 1.5146-.1299.8222.277 1.3415 1.1684 1.2117 2.1118-.1645 1.2722-1.0646 2.6482-2.9426 4.509-1.5405 1.5232-1.8348 1.8953-2.1637 2.778-.121.3203-.2856.6578-.3634.7443-.1299.1472-.753.1558-13.0684.1558h-12.9386l-.251-.251-.2509-.251v-2.2068c0-2.5877-.026-2.5185.8395-2.6483.6837-.1039 1.151-.3116 1.8088-.8135 1.428-1.0819 2.4838-3.332 2.605-5.5562.1644-3.1936-1.402-5.8679-3.8859-6.6295-.502-.1558-.7616-.173-1.904-.147-1.428.026-1.6876.0951-1.9905.5105-.0952.1212-.2078.3722-.2597.5626-.0692.2337-.1125 2.9512-.1298 8.62l-.0346 8.2823-.251.2683-.2423.2597h-5.4091c-3.28 0-5.5822-.0347-5.8678-.0866-.6404-.1212-.8222-.3202-.9001-.9866-.1385-1.3588-.8135-1.6011-2.9425-1.0472-1.627.424-3.384.3548-5.2534-.2077-3.003-.9088-5.1061-3.1243-6.0408-6.3698-.4587-1.5924-.5799-2.8906-.4328-4.4224.251-2.5445 1.1338-4.5697 2.7349-6.2573 1.6184-1.705 3.4964-2.7262 5.6687-3.081 1.3934-.225 2.9772-.1298 4.3186.2596.7876.2337 2.3368 1.0386 3.1157 1.627.9433.7184 2.0857 1.9127 2.38 2.4926.4846.952.2337 2.155-.6231 2.9425-.4501.4154-.8482.5972-1.2896.5972-.8222 0-1.3847-.3808-2.1376-1.454-1.0905-1.5578-2.3887-2.38-3.9552-2.4925-1.1164-.0865-2.129.225-3.0897.952-.9692.7357-1.679 1.8607-2.0857 3.3234-.2077.7442-.2337.9866-.225 2.0944 0 1.0818.0346 1.376.2337 2.1204.5711 2.0857 1.5058 3.3839 3.0117 4.1541 1.0819.554 2.3454.7097 3.5224.4328 1.0732-.251 2.0685-.9607 2.432-1.731.3375-.7183.1817-1.679-.303-1.8607-.1211-.052-.727-.0865-1.3414-.0865-1.0819 0-1.4107-.0606-1.5664-.2943-.0347-.052-.0693-.4933-.0693-.9866 0-1.3414-.3376-1.229 3.7041-1.2203 3.6609.0087 3.9898.0433 4.2927.45.1644.2337.1818.3549.1644 1.5838-.0086.7356-.0606 1.4886-.1125 1.6617-.0606.173-.3808.7443-.727 1.2636l-.6144.9433v.6145c.0086.7183.2683 1.3241.7702 1.7655.4154.3635.7876.45 1.9386.45 1.2809 0 1.731-.1817 2.0858-.8221.1211-.2338.1385-1.0819.1817-8.7844l.0433-8.5247.1904-.3635c.2596-.476.753-.8655 1.2809-1.0213.3029-.0865 1.2549-.1471 3.2455-.2077 3.2194-.0865 4.0502-.0606 5.158.1645zM61.4962 57.2011c-.8221.277-1.3241.6318-1.7395 1.2377-.5626.8134-.5539.597-.5539 9.6497 0 8.092 0 8.196-.1731 8.4122-.1125.1385-.2856.2337-.4587.251l-.277.026v1.0385l.2598-.0173c.7702-.0519 1.1942-.2942 1.4971-.8395.1385-.2423.1472-.952.1904-8.793l.0433-8.5247.2423-.4068c.1299-.225.3635-.502.5193-.6144 1.0732-.805 2.83-.554 3.4792.4933l.2596.424.0432 8.5334c.0347 6.3005.0693 8.594.1472 8.7584.1818.4154.6317.8395 1.0472 1.004.3548.1384.6837.1557 2.4146.1557 1.8867 0 2.0165-.0086 2.2416-.1817.4673-.3462.597-.6058.5884-1.1943 0-.4328-.0605-.6491-.2856-1.0992a149.5515 149.5515 0 01-.6317-1.2462c-1.6011-3.1762-1.8521-7.0275-.6405-9.9008 1.2636-2.9945 3.7128-5.1149 6.8804-5.963.727-.1904 1.0126-.2164 2.2589-.225 1.6357 0 2.1895.0952 3.5743.6404 2.103.8221 4.6042 2.9858 4.9071 4.2407.277 1.151-.277 2.38-1.3155 2.8906-1.0559.528-2.0425.104-2.8906-1.2289-.7356-1.151-2.0338-2.1117-3.2455-2.3973-2.38-.5539-4.734.9-5.6774 3.5137-.372 1.03-.4933 1.8694-.4327 3.1244.1818 4.1109 2.9425 7.1226 5.8245 6.3524 1.203-.3202 2.631-1.5145 3.6609-3.0637.675-1.0126 1.1078-1.4453 1.7136-1.7223 1.3328-.6144 2.6916.2856 2.6482 1.7482-.0086.6059-.173 1.03-.6403 1.679-.9434 1.3155-.727 2.8906.4933 3.609 1.0645.6231 2.2588.3115 2.7694-.727.1558-.303.1645-.7703.2077-9.018.0346-7.0968.0606-8.7412.1645-8.9229.225-.45.3375-.4674 3.2021-.4674 3.4272 0 3.2455-.0865 3.7735 1.7396.1644.5626.5365 1.8434.8221 2.8474.554 1.878.8395 2.8646 1.506 5.1494.476 1.653.5365 1.8175.6057 1.6443.026-.0691.3203-1.0038.6578-2.077.3375-1.0732.8135-2.5704 1.0559-3.332.2336-.7616.5452-1.7569.6923-2.207.9087-2.8819 1.1857-3.4877 1.7482-3.756.4154-.199 4.4311-.2077 4.8033-.0173.4154.2164.7616.6923.874 1.1943.0693.329.0866 2.8906.0693 9.2864-.026 9.8748.0173 9.1478-.649 9.5979-.978.6663-2.5791.424-3.2628-.4934-.1818-.2423-.1818-.3375-.225-5.712l-.0433-5.4696-.199.649c-.104.3549-.251.805-.3203.9953-.0606.1904-.4587 1.4367-.8654 2.7695-2.0512 6.6207-2.0252 6.5342-2.605 7.0448-.6059.5366-.952.6578-1.8522.6578-.9173 0-1.2722-.1299-1.904-.701-.5106-.4587-.6404-.727-1.0385-2.155a1858.581 1858.581 0 01-.6577-2.38 229.7824 229.7824 0 00-.5972-2.1204 422.421 422.421 0 00-.6491-2.3367c-.6491-2.3281-.7789-2.7522-.8222-2.7955-.026-.026-.0432 2.9772-.0432 6.6813 0 7.4776.0173 7.218-.554 7.4516-.2682.1125-2.6741.1299-18.0966.1299H58.251v-2.8474l-.3117-.0865c-.7789-.2164-1.2462-.779-1.35-1.6271-.1385-1.177.026-1.151-6.4477-1.151h-5.2187l.0173-2.709.026-2.7002 5.1494-.0432c4.734-.0433 5.1754-.052 5.3918-.199.3202-.2078.502-.6059.5539-1.177.0606-.6146-.0865-1.1512-.4068-1.506l-.2423-.277-5.184-.0432-5.1755-.0433-.026-2.2675-.0173-2.2761 5.0975-.0173c5.0024-.026 5.1062-.026 5.3485-.2078.3722-.2682.58-.7702.6145-1.4885.0433-.7616-.1298-1.2896-.5106-1.6184l-.2683-.2164H48.774c-4.3791 0-6.6726.0346-6.9669.0952-.2423.052-.5625.199-.7097.3202-.5712.4847-.5365-.0432-.5885 9.4075l-.0432 8.568-.2424.502c-.1904.3808-.3375.5452-.649.7356l-.4068.2337-8.568.0433-8.568.0433v3.6349h72.0924l.3894-.1818c.4933-.2337.8395-.5798 1.0732-1.0731.1644-.3636.1817-.5799.225-3.2888.052-3.306-.0346-3.2368.701-.6144.3202 1.151.4241 1.4106.753 1.8347 1.6357 2.1896 4.7167 2.129 6.3438-.1211.1558-.2078.3981-.805.6058-1.48.199-.6231.424-1.35.5106-1.6097.0866-.2597.199-.6405.251-.8481.199-.7443.2683-.3722.2683 1.4885 0 1.9992.0519 2.3021.476 2.856.3029.3981.7962.727 1.4713.9693 1.0645.3895 2.328.2424 3.2627-.3808.3808-.251.8135-.8654.9347-1.3241.0606-.2077.078-3.5743.0692-9.572l-.026-9.243-.2336-.45c-.3461-.6578-.7097-1.0213-1.2636-1.2982l-.4933-.2424h-4.76l-.4413.2337c-.502.2597-.9347.727-1.2637 1.3415-.121.2337-.7182 1.9819-1.3327 3.9032-.6059 1.9127-1.1338 3.4532-1.177 3.4099-.0606-.0606-.701-2.1897-1.4973-4.9937-.398-1.3847-.727-2.4665-.8135-2.6223-.1558-.303-.7616-.7703-1.1857-.9347-.3894-.1472-.6837-.1645-3.28-.1645-2.7609 0-2.8647.0087-3.2022.1904-.4328.2337-.6837.4933-.8828.9347-.1471.3202-.1558.9088-.199 9.0007-.0433 7.9622-.052 8.6806-.1904 8.9229-.1731.3116-.303.3808-.7357.3808-.2423 0-.3808-.0692-.6404-.3289-.5453-.5452-.5539-1.0818-.0346-1.8088.4587-.649.7183-1.2117.8308-1.8607.4673-2.5963-2.1637-4.4658-4.3965-3.1243-.7097.4154-1.0732.8049-1.7829 1.8434-.675.9867-1.5405 1.9213-2.1117 2.2762-.5971.3721-1.3934.6058-1.8867.5452-1.4453-.1644-2.7261-1.5838-3.384-3.7301-.2076-.6923-.2422-.926-.2422-2.0339-.0087-1.0904.0173-1.3414.199-1.904.303-.9779.6664-1.627 1.2463-2.2242 1.8434-1.9213 4.3532-1.5145 6.0322.978.6837 1.004 1.4193 1.5492 2.3973 1.7655 1.2377.277 2.7608-.6144 3.41-2.0078.2768-.5972.2941-.6837.2941-1.5405s-.0173-.952-.2856-1.4886c-.3548-.7183-1.627-2.0858-2.6742-2.8733-1.376-1.0299-3.1416-1.8175-4.6908-2.0858-.8308-.147-2.7348-.173-3.557-.0432-1.3674.2163-3.0897.9174-4.4484 1.8001-.8222.5366-2.4233 2.1463-2.9859 3.0031-1.878 2.8733-2.38 6.1448-1.4798 9.7538.372 1.4712.8221 2.5876 1.6876 4.1281.1298.225.2164.5193.2164.7184v.3288h-1.878c-1.3502-.0086-1.9214-.0346-2.0166-.1125-.4068-.3288-.3895.1212-.4327-8.966l-.0433-8.5335-.2077-.45c-.251-.5625-.8914-1.177-1.5492-1.48-.4068-.1903-.6404-.2336-1.3588-.2509-.5452-.0173-.9952.0173-1.2116.0865zm54.8266 8.6892c-1.4626.5106-2.3021 2.129-1.9905 3.8253.199 1.0905.8048 1.9386 1.705 2.3886l.502.2597h11.5104l.5799-.2856c.9433-.4587 1.5319-1.3155 1.7136-2.4665.2423-1.532-.4673-3.0118-1.7222-3.6003l-.4847-.225-5.712-.0174c-5.0197-.0173-5.7553 0-6.1015.1212zm11.6317.9953c.476.1471 1.03.7096 1.203 1.2376.3116.8914.0866 2.0684-.476 2.6136-.6577.6232-.3115.5885-6.162.6145-5.8765.026-5.8938.026-6.4736-.5366-.4847-.4673-.701-1.0212-.701-1.7828 0-.528.0346-.727.2163-1.0818.277-.5366.6404-.8828 1.0732-1.0386.4673-.1644 10.7749-.1904 11.3202-.026h0z"/></g></g></svg>