<svg version="1.0" xmlns="http://www.w3.org/2000/svg" width="458.6667" height="477.3333" viewBox="0 0 344 358"><path fill="#3e4095" d="M111.1 59.6L40.7 92H30.5C16 92 11 92.8 11 95.1c0 1.8 1 1.9 14.9 1.9h15l70.8-32.5C150.6 46.6 183.2 32 184.1 32c.8 0 20.8 8.1 44.3 18 23.5 9.9 43.6 18 44.6 18s2.8-1.4 4-3c2.5-3.6 3.2-3.7 6.9-.9l2.9 2.1-1.9 4.2-1.8 4.1 5.5 5.5 5.4 5.5 4-2.3c2.1-1.2 4.1-2.2 4.4-2.2.2 0 1.4 1.6 2.6 3.6l2.3 3.5-3.2 3.3-3.1 3.2 3.2 6.5 3.3 6.4 4.6-.3c4.4-.3 4.7-.1 5.8 2.9 1.3 3.9 1 4.5-3.6 5.9l-3.6 1.2.6 7.3c.9 10.1 1.1 10.5 6.3 10.5 4.3 0 4.4.1 4.4 3.2 0 4.5-.9 5.4-5.6 6.2-3.7.7-4.2 1.1-5.2 4.4-.6 2-1.4 5.6-1.8 7.9-.6 4.2-.6 4.2 3.5 5.9 2.2.9 4.1 1.8 4.1 2 0 .2-.8 1.9-1.7 3.9-1.2 2.5-2.2 3.4-3.2 3-5.7-2.2-6.6-1.9-10.9 4.3-2.3 3.3-4.2 6.4-4.2 6.8 0 .4 1.4 2.3 3.2 4.1l3.1 3.2-2.7 3.5-2.7 3.6-3.9-2.6-3.9-2.6-6.8 5c-11.5 8.4-13.3 8.9-13.3 3.6 0-2-.3-3.4-.7-3.2-18.5 9.5-34.9 11-57 5.2-5.4-1.4-20.4-6.1-33.3-10.4-35.8-12.1-48.9-15-67.1-15H103v154h167V210.5l4.5-2.4c2.5-1.3 6.9-4.1 9.7-6.2 2.8-2.2 5.6-3.9 6.1-3.9s2 .9 3.4 2 3.3 2 4.3 2c1.6 0 11-10.8 11-12.7 0-.5-1.3-2.2-3-3.8-1.6-1.6-3-3.2-3-3.6 0-.4 1.1-2.1 2.6-3.8 2.1-2.6 2.9-2.9 5-2.1 4.9 1.9 6 1.3 8.8-5.1 3.5-8.2 3.4-9.4-1.4-11.3-4.1-1.6-4.5-2.6-3.1-7.6.6-2.1 1.4-2.6 5.6-3l5-.5.3-8.7c.3-9.6.6-9.2-6.8-10-2.2-.3-2.5-.8-2.8-5l-.3-4.7 4-1.2c2.7-.8 4.1-1.8 4.1-2.9 0-2.1-3.8-13.2-4.8-14.2-.4-.4-2.5-.3-4.6.3-3.2.9-4 .8-5.1-.8-2.9-3.9-2.8-6.4.5-9.8l3.1-3.2-4.2-6.2c-2.3-3.5-4.8-6.5-5.6-6.8-.8-.3-2.7.4-4.3 1.6-3.6 2.6-3.8 2.6-7.5-.3l-3-2.4 1.8-3.6c.9-2 1.7-4.3 1.7-5.1 0-.8-3-3.5-6.6-6.1l-6.7-4.8-2.8 3.5c-1.6 1.9-2.9 3.7-2.9 4.1 0 .5-.4.8-.9.8s-20.2-8.1-43.7-18c-23.6-9.9-43.8-18-44.9-17.9-1.1 0-33.7 14.7-72.4 32.5z"/><path fill="#3e4095" d="M223 64.5c-11.5 3.2-24.1 10.7-34.5 20.6-3.7 3.5-4.6 3.9-12.7 4.9-31.3 3.8-56.7 22.3-67.5 49-3.1 7.7-5.3 17.9-5.3 24.7v5.3h9.8c18 0 36.3 4.2 69.2 15.7 42.2 14.8 60.7 16.5 79.7 7.4 7.4-3.6 8.3-3.8 8.3-2.1 0 3.5 1.6 3 8.1-2.4 12.6-10.3 20.7-21.3 25-33.6 3.1-8.8 3.8-26.9 1.5-36.1-6-23.7-24-43.6-46.8-51.6-9.2-3.3-26.1-4.2-34.8-1.8zm30.1 5.1C268.2 74 285.6 88 293.3 102c12.8 23.2 11.1 48-4.8 68.6-4.4 5.7-15.8 16.4-17.5 16.4-.4 0-1-7.8-1.2-17.3-.4-14.2-.9-18.4-2.8-24.2-6.7-21-21-37.3-41.5-47.2-9.1-4.3-22.3-8.3-27.9-8.3-6 0-6.1-1.4-.4-6.4 6.3-5.5 17.1-11.4 25.3-13.7 7.9-2.3 23.3-2.4 30.6-.3zM93 173.9c-32.4 6.9-53.3 28.1-58.1 59.2-2.2 14.2.4 28.8 7.7 43.7 3.6 7.4 6.1 10.9 12.3 17.1 6.6 6.7 9.3 8.7 18.2 12.9 6.3 3.1 13.4 5.7 18.1 6.6 10.3 2.1 11 2.1 10.6-.6-.2-1.9-1.1-2.4-5-2.9-15.1-2.2-27.3-8.4-38.3-19.4C45.6 277.6 39 261.5 39 243c0-32.8 22.2-58.2 56.8-65 5.5-1.1 6.2-1.5 6.2-3.6 0-1.3-.1-2.4-.2-2.3-.2 0-4.1.9-8.8 1.8z"/></svg>